STARTFONT 2.1
FONT -Misc-Atarist-Medium-R-Normal--16-150-75-75-C-80-ISO10646-1
SIZE 15 75 75
FONTBOUNDINGBOX 8 16 0 -2
STARTPROPERTIES 17
FONT_ASCENT 14
FONT_DESCENT 2
FOUNDRY "Misc"
FAMILY_NAME "Atarist"
WEIGHT_NAME "Medium"
SLANT "R"
SETWIDTH_NAME "Normal"
ADD_STYLE_NAME ""
PIXEL_SIZE 16
POINT_SIZE 150
RESOLUTION_X 75
RESOLUTION_Y 75
SPACING "C"
AVERAGE_WIDTH 80
CHARSET_REGISTRY "ISO10646"
CHARSET_ENCODING "1"
_GBDFED_INFO "Edited with gbdfed 1.1."
ENDPROPERTIES
CHARS 324
STARTCHAR <control>
ENCODING 0
SWIDTH 512 0
DWIDTH 8 0
BBX 8 16 0 -2
BITMAP
00
00
00
00
00
00
00
00
00
00
00
00
00
00
00
00
ENDCHAR
STARTCHAR <control>
ENCODING 1
SWIDTH 512 0
DWIDTH 8 0
BBX 8 16 0 -2
BITMAP
00
00
00
18
3C
66
C3
81
E7
24
24
24
3C
00
00
00
ENDCHAR
STARTCHAR <control>
ENCODING 2
SWIDTH 512 0
DWIDTH 8 0
BBX 8 16 0 -2
BITMAP
00
00
00
3C
24
24
24
E7
81
C3
66
3C
18
00
00
00
ENDCHAR
STARTCHAR <control>
ENCODING 3
SWIDTH 512 0
DWIDTH 8 0
BBX 8 16 0 -2
BITMAP
00
00
30
38
2C
E6
83
83
E6
2C
38
30
00
00
00
00
ENDCHAR
STARTCHAR <control>
ENCODING 4
SWIDTH 512 0
DWIDTH 8 0
BBX 8 16 0 -2
BITMAP
00
00
0C
1C
34
67
C1
C1
67
34
1C
0C
00
00
00
00
ENDCHAR
STARTCHAR <control>
ENCODING 5
SWIDTH 512 0
DWIDTH 8 0
BBX 8 16 0 -2
BITMAP
00
00
7C
38
BA
92
D6
C6
D6
92
BA
38
7C
00
00
00
ENDCHAR
STARTCHAR <control>
ENCODING 6
SWIDTH 512 0
DWIDTH 8 0
BBX 8 16 0 -2
BITMAP
00
00
FE
FE
FE
FC
FC
F8
FA
F2
F6
E6
EE
00
00
00
ENDCHAR
STARTCHAR <control>
ENCODING 7
SWIDTH 512 0
DWIDTH 8 0
BBX 8 16 0 -2
BITMAP
00
00
EE
C6
D6
92
BA
38
BA
92
D6
C6
EE
00
00
00
ENDCHAR
STARTCHAR <control>
ENCODING 8
SWIDTH 512 0
DWIDTH 8 0
BBX 8 16 0 -2
BITMAP
00
00
01
01
03
03
06
06
8C
8C
D8
58
70
30
20
00
ENDCHAR
STARTCHAR <control>
ENCODING 9
SWIDTH 512 0
DWIDTH 8 0
BBX 8 16 0 -2
BITMAP
00
00
00
3C
66
C3
91
91
9D
81
C3
66
3C
00
00
00
ENDCHAR
STARTCHAR <control>
ENCODING 10
SWIDTH 512 0
DWIDTH 8 0
BBX 8 16 0 -2
BITMAP
00
00
00
00
18
3C
3C
3C
3C
3C
7E
FF
10
38
10
00
ENDCHAR
STARTCHAR <control>
ENCODING 11
SWIDTH 512 0
DWIDTH 8 0
BBX 8 16 0 -2
BITMAP
00
00
08
0E
0F
09
08
08
78
F8
70
00
00
00
00
00
ENDCHAR
STARTCHAR <control>
ENCODING 12
SWIDTH 512 0
DWIDTH 8 0
BBX 8 16 0 -2
BITMAP
00
00
78
40
70
40
40
00
1E
10
1C
10
10
00
00
00
ENDCHAR
STARTCHAR <control>
ENCODING 13
SWIDTH 512 0
DWIDTH 8 0
BBX 8 16 0 -2
BITMAP
00
00
38
40
40
40
38
00
1C
12
1C
14
12
00
00
00
ENDCHAR
STARTCHAR <control>
ENCODING 14
SWIDTH 512 0
DWIDTH 8 0
BBX 8 16 0 -2
BITMAP
00
05
05
05
05
0D
0D
1D
39
79
71
71
61
41
00
00
ENDCHAR
STARTCHAR <control>
ENCODING 15
SWIDTH 512 0
DWIDTH 8 0
BBX 8 16 0 -2
BITMAP
00
A0
A0
A0
A0
B0
B0
B8
9C
9E
8E
8E
86
82
00
00
ENDCHAR
STARTCHAR <control>
ENCODING 16
SWIDTH 512 0
DWIDTH 8 0
BBX 8 16 0 -2
BITMAP
00
7C
BA
C6
C6
C6
82
00
82
C6
C6
C6
BA
7C
00
00
ENDCHAR
STARTCHAR <control>
ENCODING 17
SWIDTH 512 0
DWIDTH 8 0
BBX 8 16 0 -2
BITMAP
00
00
02
06
06
06
02
00
02
06
06
06
02
00
00
00
ENDCHAR
STARTCHAR <control>
ENCODING 18
SWIDTH 512 0
DWIDTH 8 0
BBX 8 16 0 -2
BITMAP
00
7C
3A
06
06
06
3A
7C
B8
C0
C0
C0
B8
7C
00
00
ENDCHAR
STARTCHAR <control>
ENCODING 19
SWIDTH 512 0
DWIDTH 8 0
BBX 8 16 0 -2
BITMAP
00
7C
3A
06
06
06
3A
7C
3A
06
06
06
3A
7C
00
00
ENDCHAR
STARTCHAR <control>
ENCODING 20
SWIDTH 512 0
DWIDTH 8 0
BBX 8 16 0 -2
BITMAP
00
00
82
C6
C6
C6
BA
7C
3A
06
06
06
02
00
00
00
ENDCHAR
STARTCHAR <control>
ENCODING 21
SWIDTH 512 0
DWIDTH 8 0
BBX 8 16 0 -2
BITMAP
00
7C
B8
C0
C0
C0
B8
7C
3A
06
06
06
3A
7C
00
00
ENDCHAR
STARTCHAR <control>
ENCODING 22
SWIDTH 512 0
DWIDTH 8 0
BBX 8 16 0 -2
BITMAP
00
7C
B8
C0
C0
C0
B8
7C
BA
C6
C6
C6
BA
7C
00
00
ENDCHAR
STARTCHAR <control>
ENCODING 23
SWIDTH 512 0
DWIDTH 8 0
BBX 8 16 0 -2
BITMAP
00
7C
BA
C6
C6
C6
82
00
02
06
06
06
02
00
00
00
ENDCHAR
STARTCHAR <control>
ENCODING 24
SWIDTH 512 0
DWIDTH 8 0
BBX 8 16 0 -2
BITMAP
00
7C
BA
C6
C6
C6
BA
7C
BA
C6
C6
C6
BA
7C
00
00
ENDCHAR
STARTCHAR <control>
ENCODING 25
SWIDTH 512 0
DWIDTH 8 0
BBX 8 16 0 -2
BITMAP
00
7C
BA
C6
C6
C6
BA
7C
3A
06
06
06
3A
7C
00
00
ENDCHAR
STARTCHAR <control>
ENCODING 26
SWIDTH 512 0
DWIDTH 8 0
BBX 8 16 0 -2
BITMAP
00
00
00
00
00
7C
7E
06
06
7E
66
66
7E
3C
00
00
ENDCHAR
STARTCHAR <control>
ENCODING 27
SWIDTH 512 0
DWIDTH 8 0
BBX 8 16 0 -2
BITMAP
00
00
78
40
70
40
78
00
0E
10
0C
02
1C
00
00
00
ENDCHAR
STARTCHAR <control>
ENCODING 28
SWIDTH 512 0
DWIDTH 8 0
BBX 8 16 0 -2
BITMAP
00
00
00
00
00
00
00
00
07
0F
1F
18
18
10
1E
17
ENDCHAR
STARTCHAR <control>
ENCODING 29
SWIDTH 512 0
DWIDTH 8 0
BBX 8 16 0 -2
BITMAP
00
00
00
00
00
00
00
00
F0
F8
EC
04
04
04
3C
54
ENDCHAR
STARTCHAR <control>
ENCODING 30
SWIDTH 512 0
DWIDTH 8 0
BBX 8 16 0 -2
BITMAP
11
0B
0D
06
07
2E
39
38
00
00
00
00
00
00
00
00
ENDCHAR
STARTCHAR <control>
ENCODING 31
SWIDTH 512 0
DWIDTH 8 0
BBX 8 16 0 -2
BITMAP
04
28
D8
28
D0
10
E0
00
00
00
00
00
00
00
00
00
ENDCHAR
STARTCHAR SPACE
ENCODING 32
SWIDTH 512 0
DWIDTH 8 0
BBX 8 16 0 -2
BITMAP
00
00
00
00
00
00
00
00
00
00
00
00
00
00
00
00
ENDCHAR
STARTCHAR EXCLAMATION MARK
ENCODING 33
SWIDTH 512 0
DWIDTH 8 0
BBX 8 16 0 -2
BITMAP
00
00
18
18
18
18
18
18
18
18
00
00
18
18
00
00
ENDCHAR
STARTCHAR QUOTATION MARK
ENCODING 34
SWIDTH 512 0
DWIDTH 8 0
BBX 8 16 0 -2
BITMAP
00
00
66
66
66
66
66
66
00
00
00
00
00
00
00
00
ENDCHAR
STARTCHAR NUMBER SIGN
ENCODING 35
SWIDTH 512 0
DWIDTH 8 0
BBX 8 16 0 -2
BITMAP
00
00
66
66
FF
FF
66
66
FF
FF
66
66
00
00
00
00
ENDCHAR
STARTCHAR DOLLAR SIGN
ENCODING 36
SWIDTH 512 0
DWIDTH 8 0
BBX 8 16 0 -2
BITMAP
18
18
3E
7E
60
60
7C
3E
06
06
7E
7C
18
18
00
00
ENDCHAR
STARTCHAR PERCENT SIGN
ENCODING 37
SWIDTH 512 0
DWIDTH 8 0
BBX 8 16 0 -2
BITMAP
00
00
66
66
6C
0C
18
18
30
36
66
66
00
00
00
00
ENDCHAR
STARTCHAR AMPERSAND
ENCODING 38
SWIDTH 512 0
DWIDTH 8 0
BBX 8 16 0 -2
BITMAP
38
7C
6C
6C
38
38
70
70
DE
DE
CC
CC
FE
76
00
00
ENDCHAR
STARTCHAR APOSTROPHE
ENCODING 39
SWIDTH 512 0
DWIDTH 8 0
BBX 8 16 0 -2
BITMAP
00
00
18
18
18
18
18
18
00
00
00
00
00
00
00
00
ENDCHAR
STARTCHAR LEFT PARENTHESIS
ENCODING 40
SWIDTH 512 0
DWIDTH 8 0
BBX 8 16 0 -2
BITMAP
00
00
06
0C
1C
18
18
18
18
18
18
1C
0C
06
00
00
ENDCHAR
STARTCHAR RIGHT PARENTHESIS
ENCODING 41
SWIDTH 512 0
DWIDTH 8 0
BBX 8 16 0 -2
BITMAP
00
00
60
30
38
18
18
18
18
18
18
38
30
60
00
00
ENDCHAR
STARTCHAR ASTERISK
ENCODING 42
SWIDTH 512 0
DWIDTH 8 0
BBX 8 16 0 -2
BITMAP
00
00
66
66
3C
3C
FF
FF
3C
3C
66
66
00
00
00
00
ENDCHAR
STARTCHAR PLUS SIGN
ENCODING 43
SWIDTH 512 0
DWIDTH 8 0
BBX 8 16 0 -2
BITMAP
00
00
00
18
18
18
7E
7E
18
18
18
00
00
00
00
00
ENDCHAR
STARTCHAR COMMA
ENCODING 44
SWIDTH 512 0
DWIDTH 8 0
BBX 8 16 0 -2
BITMAP
00
00
00
00
00
00
00
00
00
00
18
18
18
18
30
20
ENDCHAR
STARTCHAR HYPHEN-MINUS
ENCODING 45
SWIDTH 512 0
DWIDTH 8 0
BBX 8 16 0 -2
BITMAP
00
00
00
00
00
00
7E
7E
00
00
00
00
00
00
00
00
ENDCHAR
STARTCHAR FULL STOP
ENCODING 46
SWIDTH 512 0
DWIDTH 8 0
BBX 8 16 0 -2
BITMAP
00
00
00
00
00
00
00
00
00
00
18
18
18
18
00
00
ENDCHAR
STARTCHAR SOLIDUS
ENCODING 47
SWIDTH 512 0
DWIDTH 8 0
BBX 8 16 0 -2
BITMAP
00
00
06
06
06
0C
0C
18
18
30
30
60
60
60
00
00
ENDCHAR
STARTCHAR DIGIT ZERO
ENCODING 48
SWIDTH 512 0
DWIDTH 8 0
BBX 8 16 0 -2
BITMAP
00
00
3C
7E
66
66
66
6E
76
66
66
66
7E
3C
00
00
ENDCHAR
STARTCHAR DIGIT ONE
ENCODING 49
SWIDTH 512 0
DWIDTH 8 0
BBX 8 16 0 -2
BITMAP
00
00
18
18
38
38
18
18
18
18
18
18
7E
7E
00
00
ENDCHAR
STARTCHAR DIGIT TWO
ENCODING 50
SWIDTH 512 0
DWIDTH 8 0
BBX 8 16 0 -2
BITMAP
00
00
3C
7E
66
66
0C
0C
18
18
30
30
7E
7E
00
00
ENDCHAR
STARTCHAR DIGIT THREE
ENCODING 51
SWIDTH 512 0
DWIDTH 8 0
BBX 8 16 0 -2
BITMAP
00
00
7E
7E
0C
0C
18
18
0C
0C
66
66
7E
3C
00
00
ENDCHAR
STARTCHAR DIGIT FOUR
ENCODING 52
SWIDTH 512 0
DWIDTH 8 0
BBX 8 16 0 -2
BITMAP
00
00
0C
0C
1C
1C
3C
3C
6C
6C
7E
7E
0C
0C
00
00
ENDCHAR
STARTCHAR DIGIT FIVE
ENCODING 53
SWIDTH 512 0
DWIDTH 8 0
BBX 8 16 0 -2
BITMAP
00
00
7E
7E
60
60
7C
7E
06
06
06
66
7E
3C
00
00
ENDCHAR
STARTCHAR DIGIT SIX
ENCODING 54
SWIDTH 512 0
DWIDTH 8 0
BBX 8 16 0 -2
BITMAP
00
00
1C
3C
70
60
60
7C
7E
66
66
66
7E
3C
00
00
ENDCHAR
STARTCHAR DIGIT SEVEN
ENCODING 55
SWIDTH 512 0
DWIDTH 8 0
BBX 8 16 0 -2
BITMAP
00
00
7E
7E
06
06
0C
0C
18
18
30
30
30
30
00
00
ENDCHAR
STARTCHAR DIGIT EIGHT
ENCODING 56
SWIDTH 512 0
DWIDTH 8 0
BBX 8 16 0 -2
BITMAP
00
00
3C
7E
66
66
3C
3C
66
66
66
66
7E
3C
00
00
ENDCHAR
STARTCHAR DIGIT NINE
ENCODING 57
SWIDTH 512 0
DWIDTH 8 0
BBX 8 16 0 -2
BITMAP
00
00
3C
7E
66
66
7E
3E
06
06
06
0E
3C
38
00
00
ENDCHAR
STARTCHAR COLON
ENCODING 58
SWIDTH 512 0
DWIDTH 8 0
BBX 8 16 0 -2
BITMAP
00
00
00
00
18
18
18
18
00
00
18
18
18
18
00
00
ENDCHAR
STARTCHAR SEMICOLON
ENCODING 59
SWIDTH 512 0
DWIDTH 8 0
BBX 8 16 0 -2
BITMAP
00
00
00
00
18
18
18
18
00
00
18
18
18
18
30
20
ENDCHAR
STARTCHAR LESS-THAN SIGN
ENCODING 60
SWIDTH 512 0
DWIDTH 8 0
BBX 8 16 0 -2
BITMAP
00
00
00
0E
1C
38
70
E0
70
38
1C
0E
00
00
00
00
ENDCHAR
STARTCHAR EQUALS SIGN
ENCODING 61
SWIDTH 512 0
DWIDTH 8 0
BBX 8 16 0 -2
BITMAP
00
00
00
00
7E
7E
00
00
7E
7E
00
00
00
00
00
00
ENDCHAR
STARTCHAR GREATER-THAN SIGN
ENCODING 62
SWIDTH 512 0
DWIDTH 8 0
BBX 8 16 0 -2
BITMAP
00
00
00
E0
70
38
1C
0E
1C
38
70
E0
00
00
00
00
ENDCHAR
STARTCHAR QUESTION MARK
ENCODING 63
SWIDTH 512 0
DWIDTH 8 0
BBX 8 16 0 -2
BITMAP
00
00
3C
7E
66
66
0C
0C
18
18
18
00
18
18
00
00
ENDCHAR
STARTCHAR COMMERCIAL AT
ENCODING 64
SWIDTH 512 0
DWIDTH 8 0
BBX 8 16 0 -2
BITMAP
00
00
38
7C
E6
C2
DA
D6
D6
DC
C0
E2
7E
3C
00
00
ENDCHAR
STARTCHAR LATIN CAPITAL LETTER A
ENCODING 65
SWIDTH 512 0
DWIDTH 8 0
BBX 8 16 0 -2
BITMAP
00
00
18
3C
7E
66
66
66
7E
7E
66
66
66
66
00
00
ENDCHAR
STARTCHAR LATIN CAPITAL LETTER B
ENCODING 66
SWIDTH 512 0
DWIDTH 8 0
BBX 8 16 0 -2
BITMAP
00
00
7C
7E
66
66
7E
7C
66
66
66
66
7E
7C
00
00
ENDCHAR
STARTCHAR LATIN CAPITAL LETTER C
ENCODING 67
SWIDTH 512 0
DWIDTH 8 0
BBX 8 16 0 -2
BITMAP
00
00
3C
7E
66
66
60
60
60
60
66
66
7E
3C
00
00
ENDCHAR
STARTCHAR LATIN CAPITAL LETTER D
ENCODING 68
SWIDTH 512 0
DWIDTH 8 0
BBX 8 16 0 -2
BITMAP
00
00
78
7C
6E
66
66
66
66
66
66
6E
7C
78
00
00
ENDCHAR
STARTCHAR LATIN CAPITAL LETTER E
ENCODING 69
SWIDTH 512 0
DWIDTH 8 0
BBX 8 16 0 -2
BITMAP
00
00
7E
7E
60
60
7C
7C
60
60
60
60
7E
7E
00
00
ENDCHAR
STARTCHAR LATIN CAPITAL LETTER F
ENCODING 70
SWIDTH 512 0
DWIDTH 8 0
BBX 8 16 0 -2
BITMAP
00
00
7E
7E
60
60
7C
7C
60
60
60
60
60
60
00
00
ENDCHAR
STARTCHAR LATIN CAPITAL LETTER G
ENCODING 71
SWIDTH 512 0
DWIDTH 8 0
BBX 8 16 0 -2
BITMAP
00
00
3E
7E
60
60
6E
6E
66
66
66
66
7E
3C
00
00
ENDCHAR
STARTCHAR LATIN CAPITAL LETTER H
ENCODING 72
SWIDTH 512 0
DWIDTH 8 0
BBX 8 16 0 -2
BITMAP
00
00
66
66
66
66
7E
7E
66
66
66
66
66
66
00
00
ENDCHAR
STARTCHAR LATIN CAPITAL LETTER I
ENCODING 73
SWIDTH 512 0
DWIDTH 8 0
BBX 8 16 0 -2
BITMAP
00
00
7E
7E
18
18
18
18
18
18
18
18
7E
7E
00
00
ENDCHAR
STARTCHAR LATIN CAPITAL LETTER J
ENCODING 74
SWIDTH 512 0
DWIDTH 8 0
BBX 8 16 0 -2
BITMAP
00
00
06
06
06
06
06
06
06
06
66
66
7E
3C
00
00
ENDCHAR
STARTCHAR LATIN CAPITAL LETTER K
ENCODING 75
SWIDTH 512 0
DWIDTH 8 0
BBX 8 16 0 -2
BITMAP
00
00
CC
CC
D8
D8
F0
F0
D8
D8
CC
CC
C6
C6
00
00
ENDCHAR
STARTCHAR LATIN CAPITAL LETTER L
ENCODING 76
SWIDTH 512 0
DWIDTH 8 0
BBX 8 16 0 -2
BITMAP
00
00
60
60
60
60
60
60
60
60
60
60
7E
7E
00
00
ENDCHAR
STARTCHAR LATIN CAPITAL LETTER M
ENCODING 77
SWIDTH 512 0
DWIDTH 8 0
BBX 8 16 0 -2
BITMAP
00
00
C6
C6
EE
EE
FE
D6
D6
C6
C6
C6
C6
C6
00
00
ENDCHAR
STARTCHAR LATIN CAPITAL LETTER N
ENCODING 78
SWIDTH 512 0
DWIDTH 8 0
BBX 8 16 0 -2
BITMAP
00
00
66
66
66
76
76
7E
7E
6E
6E
66
66
66
00
00
ENDCHAR
STARTCHAR LATIN CAPITAL LETTER O
ENCODING 79
SWIDTH 512 0
DWIDTH 8 0
BBX 8 16 0 -2
BITMAP
00
00
3C
7E
66
66
66
66
66
66
66
66
7E
3C
00
00
ENDCHAR
STARTCHAR LATIN CAPITAL LETTER P
ENCODING 80
SWIDTH 512 0
DWIDTH 8 0
BBX 8 16 0 -2
BITMAP
00
00
7C
7E
66
66
66
66
7E
7C
60
60
60
60
00
00
ENDCHAR
STARTCHAR LATIN CAPITAL LETTER Q
ENCODING 81
SWIDTH 512 0
DWIDTH 8 0
BBX 8 16 0 -2
BITMAP
00
00
3C
7E
66
66
66
66
66
66
66
6A
7C
36
00
00
ENDCHAR
STARTCHAR LATIN CAPITAL LETTER R
ENCODING 82
SWIDTH 512 0
DWIDTH 8 0
BBX 8 16 0 -2
BITMAP
00
00
F8
FC
CC
CC
CC
FC
F8
D8
CC
CC
C6
C6
00
00
ENDCHAR
STARTCHAR LATIN CAPITAL LETTER S
ENCODING 83
SWIDTH 512 0
DWIDTH 8 0
BBX 8 16 0 -2
BITMAP
00
00
3E
7E
60
60
70
38
1C
0E
06
06
7E
7C
00
00
ENDCHAR
STARTCHAR LATIN CAPITAL LETTER T
ENCODING 84
SWIDTH 512 0
DWIDTH 8 0
BBX 8 16 0 -2
BITMAP
00
00
7E
7E
18
18
18
18
18
18
18
18
18
18
00
00
ENDCHAR
STARTCHAR LATIN CAPITAL LETTER U
ENCODING 85
SWIDTH 512 0
DWIDTH 8 0
BBX 8 16 0 -2
BITMAP
00
00
66
66
66
66
66
66
66
66
66
66
7E
3C
00
00
ENDCHAR
STARTCHAR LATIN CAPITAL LETTER V
ENCODING 86
SWIDTH 512 0
DWIDTH 8 0
BBX 8 16 0 -2
BITMAP
00
00
66
66
66
66
66
66
66
66
3C
3C
18
18
00
00
ENDCHAR
STARTCHAR LATIN CAPITAL LETTER W
ENCODING 87
SWIDTH 512 0
DWIDTH 8 0
BBX 8 16 0 -2
BITMAP
00
00
C6
C6
C6
C6
C6
D6
D6
FE
FE
EE
C6
82
00
00
ENDCHAR
STARTCHAR LATIN CAPITAL LETTER X
ENCODING 88
SWIDTH 512 0
DWIDTH 8 0
BBX 8 16 0 -2
BITMAP
00
00
66
66
66
3C
3C
18
18
3C
3C
66
66
66
00
00
ENDCHAR
STARTCHAR LATIN CAPITAL LETTER Y
ENCODING 89
SWIDTH 512 0
DWIDTH 8 0
BBX 8 16 0 -2
BITMAP
00
00
66
66
66
66
3C
3C
18
18
18
18
18
18
00
00
ENDCHAR
STARTCHAR LATIN CAPITAL LETTER Z
ENCODING 90
SWIDTH 512 0
DWIDTH 8 0
BBX 8 16 0 -2
BITMAP
00
00
7E
7E
0C
0C
18
18
30
30
60
60
7E
7E
00
00
ENDCHAR
STARTCHAR LEFT SQUARE BRACKET
ENCODING 91
SWIDTH 512 0
DWIDTH 8 0
BBX 8 16 0 -2
BITMAP
00
00
1E
1E
18
18
18
18
18
18
18
18
1E
1E
00
00
ENDCHAR
STARTCHAR REVERSE SOLIDUS
ENCODING 92
SWIDTH 512 0
DWIDTH 8 0
BBX 8 16 0 -2
BITMAP
00
00
60
60
60
30
30
18
18
0C
0C
06
06
06
00
00
ENDCHAR
STARTCHAR RIGHT SQUARE BRACKET
ENCODING 93
SWIDTH 512 0
DWIDTH 8 0
BBX 8 16 0 -2
BITMAP
00
00
78
78
18
18
18
18
18
18
18
18
78
78
00
00
ENDCHAR
STARTCHAR CIRCUMFLEX ACCENT
ENCODING 94
SWIDTH 512 0
DWIDTH 8 0
BBX 8 16 0 -2
BITMAP
00
10
10
38
38
6C
6C
C6
C6
00
00
00
00
00
00
00
ENDCHAR
STARTCHAR LOW LINE
ENCODING 95
SWIDTH 512 0
DWIDTH 8 0
BBX 8 16 0 -2
BITMAP
00
00
00
00
00
00
00
00
00
00
00
00
FE
FE
00
00
ENDCHAR
STARTCHAR GRAVE ACCENT
ENCODING 96
SWIDTH 512 0
DWIDTH 8 0
BBX 8 16 0 -2
BITMAP
40
60
70
38
1C
0C
04
00
00
00
00
00
00
00
00
00
ENDCHAR
STARTCHAR LATIN SMALL LETTER A
ENCODING 97
SWIDTH 512 0
DWIDTH 8 0
BBX 8 16 0 -2
BITMAP
00
00
00
00
00
3C
3E
06
3E
7E
66
66
7E
3E
00
00
ENDCHAR
STARTCHAR LATIN SMALL LETTER B
ENCODING 98
SWIDTH 512 0
DWIDTH 8 0
BBX 8 16 0 -2
BITMAP
00
00
60
60
60
7C
7E
66
66
66
66
66
7E
7C
00
00
ENDCHAR
STARTCHAR LATIN SMALL LETTER C
ENCODING 99
SWIDTH 512 0
DWIDTH 8 0
BBX 8 16 0 -2
BITMAP
00
00
00
00
00
3C
7C
60
60
60
60
60
7E
3E
00
00
ENDCHAR
STARTCHAR LATIN SMALL LETTER D
ENCODING 100
SWIDTH 512 0
DWIDTH 8 0
BBX 8 16 0 -2
BITMAP
00
00
06
06
06
3E
7E
66
66
66
66
66
7E
3E
00
00
ENDCHAR
STARTCHAR LATIN SMALL LETTER E
ENCODING 101
SWIDTH 512 0
DWIDTH 8 0
BBX 8 16 0 -2
BITMAP
00
00
00
00
00
3C
7E
66
66
7E
60
60
7E
3E
00
00
ENDCHAR
STARTCHAR LATIN SMALL LETTER F
ENCODING 102
SWIDTH 512 0
DWIDTH 8 0
BBX 8 16 0 -2
BITMAP
00
00
0E
1E
18
18
7E
7E
18
18
18
18
18
18
00
00
ENDCHAR
STARTCHAR LATIN SMALL LETTER G
ENCODING 103
SWIDTH 512 0
DWIDTH 8 0
BBX 8 16 0 -2
BITMAP
00
00
00
00
00
3E
7E
66
66
66
66
7E
3E
06
7E
7C
ENDCHAR
STARTCHAR LATIN SMALL LETTER H
ENCODING 104
SWIDTH 512 0
DWIDTH 8 0
BBX 8 16 0 -2
BITMAP
00
00
60
60
60
7C
7E
66
66
66
66
66
66
66
00
00
ENDCHAR
STARTCHAR LATIN SMALL LETTER I
ENCODING 105
SWIDTH 512 0
DWIDTH 8 0
BBX 8 16 0 -2
BITMAP
00
00
18
18
00
38
38
18
18
18
18
18
3C
3C
00
00
ENDCHAR
STARTCHAR LATIN SMALL LETTER J
ENCODING 106
SWIDTH 512 0
DWIDTH 8 0
BBX 8 16 0 -2
BITMAP
00
00
0C
0C
00
0C
0C
0C
0C
0C
0C
0C
0C
0C
7C
78
ENDCHAR
STARTCHAR LATIN SMALL LETTER K
ENCODING 107
SWIDTH 512 0
DWIDTH 8 0
BBX 8 16 0 -2
BITMAP
00
00
C0
C0
C0
CC
DC
F8
F0
F8
D8
CC
CE
C6
00
00
ENDCHAR
STARTCHAR LATIN SMALL LETTER L
ENCODING 108
SWIDTH 512 0
DWIDTH 8 0
BBX 8 16 0 -2
BITMAP
00
00
38
38
18
18
18
18
18
18
18
18
3C
3C
00
00
ENDCHAR
STARTCHAR LATIN SMALL LETTER M
ENCODING 109
SWIDTH 512 0
DWIDTH 8 0
BBX 8 16 0 -2
BITMAP
00
00
00
00
00
6C
FE
FE
D6
D6
D6
C6
C6
C6
00
00
ENDCHAR
STARTCHAR LATIN SMALL LETTER N
ENCODING 110
SWIDTH 512 0
DWIDTH 8 0
BBX 8 16 0 -2
BITMAP
00
00
00
00
00
3C
7E
66
66
66
66
66
66
66
00
00
ENDCHAR
STARTCHAR LATIN SMALL LETTER O
ENCODING 111
SWIDTH 512 0
DWIDTH 8 0
BBX 8 16 0 -2
BITMAP
00
00
00
00
00
3C
7E
66
66
66
66
66
7E
3C
00
00
ENDCHAR
STARTCHAR LATIN SMALL LETTER P
ENCODING 112
SWIDTH 512 0
DWIDTH 8 0
BBX 8 16 0 -2
BITMAP
00
00
00
00
00
7C
7E
66
66
66
66
66
7E
7C
60
60
ENDCHAR
STARTCHAR LATIN SMALL LETTER Q
ENCODING 113
SWIDTH 512 0
DWIDTH 8 0
BBX 8 16 0 -2
BITMAP
00
00
00
00
00
3E
7E
66
66
66
66
66
7E
3E
06
06
ENDCHAR
STARTCHAR LATIN SMALL LETTER R
ENCODING 114
SWIDTH 512 0
DWIDTH 8 0
BBX 8 16 0 -2
BITMAP
00
00
00
00
00
7C
7E
66
60
60
60
60
60
60
00
00
ENDCHAR
STARTCHAR LATIN SMALL LETTER S
ENCODING 115
SWIDTH 512 0
DWIDTH 8 0
BBX 8 16 0 -2
BITMAP
00
00
00
00
00
3E
7E
60
70
3C
0E
06
7E
7C
00
00
ENDCHAR
STARTCHAR LATIN SMALL LETTER T
ENCODING 116
SWIDTH 512 0
DWIDTH 8 0
BBX 8 16 0 -2
BITMAP
00
00
00
18
18
7E
7E
18
18
18
18
18
1E
0E
00
00
ENDCHAR
STARTCHAR LATIN SMALL LETTER U
ENCODING 117
SWIDTH 512 0
DWIDTH 8 0
BBX 8 16 0 -2
BITMAP
00
00
00
00
00
66
66
66
66
66
66
66
7E
3E
00
00
ENDCHAR
STARTCHAR LATIN SMALL LETTER V
ENCODING 118
SWIDTH 512 0
DWIDTH 8 0
BBX 8 16 0 -2
BITMAP
00
00
00
00
00
66
66
66
66
66
3C
3C
18
18
00
00
ENDCHAR
STARTCHAR LATIN SMALL LETTER W
ENCODING 119
SWIDTH 512 0
DWIDTH 8 0
BBX 8 16 0 -2
BITMAP
00
00
00
00
00
C6
C6
D6
D6
FE
FE
EE
C6
82
00
00
ENDCHAR
STARTCHAR LATIN SMALL LETTER X
ENCODING 120
SWIDTH 512 0
DWIDTH 8 0
BBX 8 16 0 -2
BITMAP
00
00
00
00
00
66
66
3C
3C
18
3C
3C
66
66
00
00
ENDCHAR
STARTCHAR LATIN SMALL LETTER Y
ENCODING 121
SWIDTH 512 0
DWIDTH 8 0
BBX 8 16 0 -2
BITMAP
00
00
00
00
00
66
66
66
66
66
66
7E
3E
06
7E
7C
ENDCHAR
STARTCHAR LATIN SMALL LETTER Z
ENCODING 122
SWIDTH 512 0
DWIDTH 8 0
BBX 8 16 0 -2
BITMAP
00
00
00
00
00
7E
7E
0C
18
18
30
30
7E
7E
00
00
ENDCHAR
STARTCHAR LEFT CURLY BRACKET
ENCODING 123
SWIDTH 512 0
DWIDTH 8 0
BBX 8 16 0 -2
BITMAP
00
0E
18
18
18
18
38
F0
F0
38
18
18
18
18
0E
00
ENDCHAR
STARTCHAR VERTICAL LINE
ENCODING 124
SWIDTH 512 0
DWIDTH 8 0
BBX 8 16 0 -2
BITMAP
00
18
18
18
18
18
18
18
18
18
18
18
18
18
18
00
ENDCHAR
STARTCHAR RIGHT CURLY BRACKET
ENCODING 125
SWIDTH 512 0
DWIDTH 8 0
BBX 8 16 0 -2
BITMAP
00
E0
30
30
30
30
38
1E
1E
38
30
30
30
30
E0
00
ENDCHAR
STARTCHAR TILDE
ENCODING 126
SWIDTH 512 0
DWIDTH 8 0
BBX 8 16 0 -2
BITMAP
00
00
00
00
00
62
F2
BE
9C
00
00
00
00
00
00
00
ENDCHAR
STARTCHAR INVERTED EXCLAMATION MARK
ENCODING 161
SWIDTH 512 0
DWIDTH 8 0
BBX 8 16 0 -2
BITMAP
00
00
00
18
18
00
18
18
18
18
18
18
18
18
18
00
ENDCHAR
STARTCHAR CENT SIGN
ENCODING 162
SWIDTH 512 0
DWIDTH 8 0
BBX 8 16 0 -2
BITMAP
00
00
18
18
3C
7E
66
60
60
66
7E
3C
18
18
00
00
ENDCHAR
STARTCHAR POUND SIGN
ENCODING 163
SWIDTH 512 0
DWIDTH 8 0
BBX 8 16 0 -2
BITMAP
00
0E
1E
38
30
30
30
30
FE
30
30
30
7F
FF
00
00
ENDCHAR
STARTCHAR YEN SIGN
ENCODING 165
SWIDTH 512 0
DWIDTH 8 0
BBX 8 16 0 -2
BITMAP
00
00
66
66
66
66
7E
3C
18
7E
18
18
18
18
00
00
ENDCHAR
STARTCHAR SECTION SIGN
ENCODING 167
SWIDTH 512 0
DWIDTH 8 0
BBX 8 16 0 -2
BITMAP
00
00
1C
36
32
18
3C
66
66
3C
18
4C
6C
38
00
00
ENDCHAR
STARTCHAR DIAERESIS
ENCODING 168
SWIDTH 512 0
DWIDTH 8 0
BBX 8 16 0 -2
BITMAP
00
66
66
00
00
00
00
00
00
00
00
00
00
00
00
00
ENDCHAR
STARTCHAR COPYRIGHT SIGN
ENCODING 169
SWIDTH 512 0
DWIDTH 8 0
BBX 8 16 0 -2
BITMAP
00
00
7C
C6
82
BA
A2
A2
A2
BA
82
C6
7C
00
00
00
ENDCHAR
STARTCHAR FEMININE ORDINAL INDICATOR
ENCODING 170
SWIDTH 512 0
DWIDTH 8 0
BBX 8 16 0 -2
BITMAP
00
00
00
00
3C
3E
06
3E
7E
66
66
7E
3E
00
7E
00
ENDCHAR
STARTCHAR LEFT-POINTING DOUBLE ANGLE QUOTATION MARK
ENCODING 171
SWIDTH 512 0
DWIDTH 8 0
BBX 8 16 0 -2
BITMAP
00
00
00
00
00
00
1A
36
6C
D8
6C
36
1A
00
00
00
ENDCHAR
STARTCHAR NOT SIGN
ENCODING 172
SWIDTH 512 0
DWIDTH 8 0
BBX 8 16 0 -2
BITMAP
00
00
00
00
00
00
00
00
00
7E
7E
06
06
06
00
00
ENDCHAR
STARTCHAR REGISTERED SIGN
ENCODING 174
SWIDTH 512 0
DWIDTH 8 0
BBX 8 16 0 -2
BITMAP
00
00
7C
C6
82
BA
AA
B2
BA
AA
82
C6
7C
00
00
00
ENDCHAR
STARTCHAR MACRON
ENCODING 175
SWIDTH 512 0
DWIDTH 8 0
BBX 8 16 0 -2
BITMAP
00
FE
FE
00
00
00
00
00
00
00
00
00
00
00
00
00
ENDCHAR
STARTCHAR DEGREE SIGN
ENCODING 176
SWIDTH 512 0
DWIDTH 8 0
BBX 8 16 0 -2
BITMAP
00
38
6C
44
6C
38
00
00
00
00
00
00
00
00
00
00
ENDCHAR
STARTCHAR PLUS-MINUS SIGN
ENCODING 177
SWIDTH 512 0
DWIDTH 8 0
BBX 8 16 0 -2
BITMAP
00
00
00
18
18
18
7E
7E
18
18
18
00
7E
7E
00
00
ENDCHAR
STARTCHAR SUPERSCRIPT TWO
ENCODING 178
SWIDTH 512 0
DWIDTH 8 0
BBX 8 16 0 -2
BITMAP
00
00
30
48
18
30
60
78
00
00
00
00
00
00
00
00
ENDCHAR
STARTCHAR SUPERSCRIPT THREE
ENCODING 179
SWIDTH 512 0
DWIDTH 8 0
BBX 8 16 0 -2
BITMAP
00
00
78
18
30
18
48
30
00
00
00
00
00
00
00
00
ENDCHAR
STARTCHAR ACUTE ACCENT
ENCODING 180
SWIDTH 512 0
DWIDTH 8 0
BBX 8 16 0 -2
BITMAP
00
06
0C
18
00
00
00
00
00
00
00
00
00
00
00
00
ENDCHAR
STARTCHAR MICRO SIGN
ENCODING 181
SWIDTH 512 0
DWIDTH 8 0
BBX 8 16 0 -2
BITMAP
00
00
00
00
00
66
66
66
66
66
66
7F
5D
C0
80
00
ENDCHAR
STARTCHAR PILCROW SIGN
ENCODING 182
SWIDTH 512 0
DWIDTH 8 0
BBX 8 16 0 -2
BITMAP
00
00
7A
CA
CA
CA
CA
CA
7A
0A
0A
0A
0A
0A
00
00
ENDCHAR
STARTCHAR MIDDLE DOT
ENCODING 183
SWIDTH 512 0
DWIDTH 8 0
BBX 8 16 0 -2
BITMAP
00
00
00
00
00
00
00
00
00
18
3C
3C
18
00
00
00
ENDCHAR
STARTCHAR MASCULINE ORDINAL INDICATOR
ENCODING 186
SWIDTH 512 0
DWIDTH 8 0
BBX 8 16 0 -2
BITMAP
00
00
00
00
3C
7E
66
66
66
66
66
7E
3C
00
7E
00
ENDCHAR
STARTCHAR RIGHT-POINTING DOUBLE ANGLE QUOTATION MARK
ENCODING 187
SWIDTH 512 0
DWIDTH 8 0
BBX 8 16 0 -2
BITMAP
00
00
00
00
00
00
B0
D8
6C
36
6C
D8
B0
00
00
00
ENDCHAR
STARTCHAR VULGAR FRACTION ONE QUARTER
ENCODING 188
SWIDTH 512 0
DWIDTH 8 0
BBX 8 16 0 -2
BITMAP
00
60
20
20
23
26
2C
18
32
66
CE
1A
32
3F
02
00
ENDCHAR
STARTCHAR VULGAR FRACTION ONE HALF
ENCODING 189
SWIDTH 512 0
DWIDTH 8 0
BBX 8 16 0 -2
BITMAP
00
60
20
20
23
26
2C
18
30
6E
D3
06
0C
18
1F
00
ENDCHAR
STARTCHAR INVERTED QUESTION MARK
ENCODING 191
SWIDTH 512 0
DWIDTH 8 0
BBX 8 16 0 -2
BITMAP
00
00
18
18
00
18
18
18
30
30
66
66
7E
3C
00
00
ENDCHAR
STARTCHAR U+0410
ENCODING 192
SWIDTH 512 0
DWIDTH 8 0
BBX 8 16 0 -2
BITMAP
00
00
18
3C
7E
66
66
66
7E
7E
66
66
66
66
00
00
ENDCHAR
STARTCHAR U+0411
ENCODING 193
SWIDTH 512 0
DWIDTH 8 0
BBX 8 16 0 -2
BITMAP
00
00
7C
7C
60
60
7C
7E
66
66
66
66
7E
7C
00
00
ENDCHAR
STARTCHAR U+0412
ENCODING 194
SWIDTH 512 0
DWIDTH 8 0
BBX 8 16 0 -2
BITMAP
00
00
7C
7E
66
66
7E
7C
66
66
66
66
7E
7C
00
00
ENDCHAR
STARTCHAR LATIN CAPITAL LETTER A WITH TILDE
ENCODING 195
SWIDTH 512 0
DWIDTH 8 0
BBX 8 16 0 -2
BITMAP
32
7A
4C
00
3C
7E
66
66
7E
7E
66
66
66
66
00
00
ENDCHAR
STARTCHAR LATIN CAPITAL LETTER A WITH DIAERESIS
ENCODING 196
SWIDTH 512 0
DWIDTH 8 0
BBX 8 16 0 -2
BITMAP
00
66
66
18
3C
7E
66
66
7E
7E
66
66
66
66
00
00
ENDCHAR
STARTCHAR LATIN CAPITAL LETTER A WITH RING ABOVE
ENCODING 197
SWIDTH 512 0
DWIDTH 8 0
BBX 8 16 0 -2
BITMAP
3C
66
3C
18
3C
7E
66
66
7E
7E
66
66
66
66
00
00
ENDCHAR
STARTCHAR LATIN CAPITAL LETTER AE
ENCODING 198
SWIDTH 512 0
DWIDTH 8 0
BBX 8 16 0 -2
BITMAP
00
3E
7E
F8
D8
D8
DE
DE
F8
F8
D8
D8
DE
DE
00
00
ENDCHAR
STARTCHAR LATIN CAPITAL LETTER C WITH CEDILLA
ENCODING 199
SWIDTH 512 0
DWIDTH 8 0
BBX 8 16 0 -2
BITMAP
00
00
3C
7E
66
66
60
60
60
60
66
66
7E
3C
0C
38
ENDCHAR
STARTCHAR LATIN CAPITAL LETTER E WITH ACUTE
ENCODING 201
SWIDTH 512 0
DWIDTH 8 0
BBX 8 16 0 -2
BITMAP
06
0C
18
7E
7E
60
60
7C
7C
60
60
60
7E
7E
00
00
ENDCHAR
STARTCHAR LATIN CAPITAL LETTER N WITH TILDE
ENCODING 209
SWIDTH 512 0
DWIDTH 8 0
BBX 8 16 0 -2
BITMAP
00
32
7A
4C
00
66
66
76
7E
7E
6E
66
66
66
00
00
ENDCHAR
STARTCHAR LATIN CAPITAL LETTER O WITH TILDE
ENCODING 213
SWIDTH 512 0
DWIDTH 8 0
BBX 8 16 0 -2
BITMAP
32
7A
4C
00
3C
7E
66
66
66
66
66
66
7E
3C
00
00
ENDCHAR
STARTCHAR LATIN CAPITAL LETTER O WITH DIAERESIS
ENCODING 214
SWIDTH 512 0
DWIDTH 8 0
BBX 8 16 0 -2
BITMAP
00
66
66
00
3C
7E
66
66
66
66
66
66
7E
3C
00
00
ENDCHAR
STARTCHAR LATIN CAPITAL LETTER O WITH STROKE
ENCODING 216
SWIDTH 512 0
DWIDTH 8 0
BBX 8 16 0 -2
BITMAP
00
01
3D
7E
66
66
6E
6E
76
76
66
66
7E
BC
80
00
ENDCHAR
STARTCHAR LATIN CAPITAL LETTER U WITH DIAERESIS
ENCODING 220
SWIDTH 512 0
DWIDTH 8 0
BBX 8 16 0 -2
BITMAP
00
66
66
00
66
66
66
66
66
66
66
66
7E
3C
00
00
ENDCHAR
STARTCHAR LATIN SMALL LETTER SHARP S
ENCODING 223
SWIDTH 512 0
DWIDTH 8 0
BBX 8 16 0 -2
BITMAP
00
00
18
3C
66
66
66
7C
66
66
66
7C
6C
60
40
00
ENDCHAR
STARTCHAR LATIN SMALL LETTER A WITH GRAVE
ENCODING 224
SWIDTH 512 0
DWIDTH 8 0
BBX 8 16 0 -2
BITMAP
00
60
30
18
00
3C
3E
06
3E
7E
66
66
7E
3E
00
00
ENDCHAR
STARTCHAR LATIN SMALL LETTER A WITH ACUTE
ENCODING 225
SWIDTH 512 0
DWIDTH 8 0
BBX 8 16 0 -2
BITMAP
00
06
0C
18
00
3C
3E
06
3E
7E
66
66
7E
3E
00
00
ENDCHAR
STARTCHAR LATIN SMALL LETTER A WITH CIRCUMFLEX
ENCODING 226
SWIDTH 512 0
DWIDTH 8 0
BBX 8 16 0 -2
BITMAP
00
18
3C
66
00
3C
3E
06
3E
7E
66
66
7E
3E
00
00
ENDCHAR
STARTCHAR LATIN SMALL LETTER A WITH TILDE
ENCODING 227
SWIDTH 512 0
DWIDTH 8 0
BBX 8 16 0 -2
BITMAP
00
32
7A
4C
00
3C
3E
06
3E
7E
66
66
7E
3E
00
00
ENDCHAR
STARTCHAR LATIN SMALL LETTER A WITH DIAERESIS
ENCODING 228
SWIDTH 512 0
DWIDTH 8 0
BBX 8 16 0 -2
BITMAP
00
00
66
66
00
3C
3E
06
3E
7E
66
66
7E
3E
00
00
ENDCHAR
STARTCHAR LATIN SMALL LETTER A WITH RING ABOVE
ENCODING 229
SWIDTH 512 0
DWIDTH 8 0
BBX 8 16 0 -2
BITMAP
00
1C
36
1C
00
3C
3E
06
3E
7E
66
66
7E
3E
00
00
ENDCHAR
STARTCHAR LATIN SMALL LETTER AE
ENCODING 230
SWIDTH 512 0
DWIDTH 8 0
BBX 8 16 0 -2
BITMAP
00
00
00
00
00
76
7F
1B
7B
FF
D8
D8
FF
7F
00
00
ENDCHAR
STARTCHAR LATIN SMALL LETTER C WITH CEDILLA
ENCODING 231
SWIDTH 512 0
DWIDTH 8 0
BBX 8 16 0 -2
BITMAP
00
00
00
00
00
3C
7C
60
60
60
60
60
7E
3E
0C
38
ENDCHAR
STARTCHAR LATIN SMALL LETTER E WITH GRAVE
ENCODING 232
SWIDTH 512 0
DWIDTH 8 0
BBX 8 16 0 -2
BITMAP
00
60
30
18
00
3C
7E
66
66
7E
60
60
7E
3E
00
00
ENDCHAR
STARTCHAR LATIN SMALL LETTER E WITH ACUTE
ENCODING 233
SWIDTH 512 0
DWIDTH 8 0
BBX 8 16 0 -2
BITMAP
00
06
0C
18
00
3C
7E
66
66
7E
60
60
7E
3E
00
00
ENDCHAR
STARTCHAR LATIN SMALL LETTER E WITH CIRCUMFLEX
ENCODING 234
SWIDTH 512 0
DWIDTH 8 0
BBX 8 16 0 -2
BITMAP
00
18
3C
66
00
3C
7E
66
66
7E
60
60
7E
3E
00
00
ENDCHAR
STARTCHAR LATIN SMALL LETTER E WITH DIAERESIS
ENCODING 235
SWIDTH 512 0
DWIDTH 8 0
BBX 8 16 0 -2
BITMAP
00
00
66
66
00
3C
7E
66
66
7E
60
60
7E
3E
00
00
ENDCHAR
STARTCHAR LATIN SMALL LETTER I WITH GRAVE
ENCODING 236
SWIDTH 512 0
DWIDTH 8 0
BBX 8 16 0 -2
BITMAP
00
60
30
18
00
38
38
18
18
18
18
18
3C
3C
00
00
ENDCHAR
STARTCHAR LATIN SMALL LETTER I WITH ACUTE
ENCODING 237
SWIDTH 512 0
DWIDTH 8 0
BBX 8 16 0 -2
BITMAP
00
06
0C
18
00
38
38
18
18
18
18
18
3C
3C
00
00
ENDCHAR
STARTCHAR LATIN SMALL LETTER I WITH CIRCUMFLEX
ENCODING 238
SWIDTH 512 0
DWIDTH 8 0
BBX 8 16 0 -2
BITMAP
00
18
3C
66
00
38
38
18
18
18
18
18
3C
3C
00
00
ENDCHAR
STARTCHAR LATIN SMALL LETTER I WITH DIAERESIS
ENCODING 239
SWIDTH 512 0
DWIDTH 8 0
BBX 8 16 0 -2
BITMAP
00
00
66
66
00
38
38
18
18
18
18
18
3C
3C
00
00
ENDCHAR
STARTCHAR LATIN SMALL LETTER N WITH TILDE
ENCODING 241
SWIDTH 512 0
DWIDTH 8 0
BBX 8 16 0 -2
BITMAP
00
32
7A
4C
00
3C
7E
66
66
66
66
66
66
66
00
00
ENDCHAR
STARTCHAR LATIN SMALL LETTER O WITH GRAVE
ENCODING 242
SWIDTH 512 0
DWIDTH 8 0
BBX 8 16 0 -2
BITMAP
00
60
30
18
00
3C
7E
66
66
66
66
66
7E
3C
00
00
ENDCHAR
STARTCHAR LATIN SMALL LETTER O WITH ACUTE
ENCODING 243
SWIDTH 512 0
DWIDTH 8 0
BBX 8 16 0 -2
BITMAP
00
06
0C
18
00
3C
7E
66
66
66
66
66
7E
3C
00
00
ENDCHAR
STARTCHAR LATIN SMALL LETTER O WITH CIRCUMFLEX
ENCODING 244
SWIDTH 512 0
DWIDTH 8 0
BBX 8 16 0 -2
BITMAP
00
18
3C
66
00
3C
7E
66
66
66
66
66
7E
3C
00
00
ENDCHAR
STARTCHAR LATIN SMALL LETTER O WITH TILDE
ENCODING 245
SWIDTH 512 0
DWIDTH 8 0
BBX 8 16 0 -2
BITMAP
00
32
7A
4C
00
3C
7E
66
66
66
66
66
7E
3C
00
00
ENDCHAR
STARTCHAR LATIN SMALL LETTER O WITH DIAERESIS
ENCODING 246
SWIDTH 512 0
DWIDTH 8 0
BBX 8 16 0 -2
BITMAP
00
00
66
66
00
3C
7E
66
66
66
66
66
7E
3C
00
00
ENDCHAR
STARTCHAR DIVISION SIGN
ENCODING 247
SWIDTH 512 0
DWIDTH 8 0
BBX 8 16 0 -2
BITMAP
00
00
00
18
18
00
7E
7E
00
18
18
00
00
00
00
00
ENDCHAR
STARTCHAR LATIN SMALL LETTER O WITH STROKE
ENCODING 248
SWIDTH 512 0
DWIDTH 8 0
BBX 8 16 0 -2
BITMAP
00
00
00
00
01
3D
7E
66
6E
7E
76
66
7E
BC
80
00
ENDCHAR
STARTCHAR LATIN SMALL LETTER U WITH GRAVE
ENCODING 249
SWIDTH 512 0
DWIDTH 8 0
BBX 8 16 0 -2
BITMAP
00
60
30
18
00
66
66
66
66
66
66
66
7E
3E
00
00
ENDCHAR
STARTCHAR LATIN SMALL LETTER U WITH ACUTE
ENCODING 250
SWIDTH 512 0
DWIDTH 8 0
BBX 8 16 0 -2
BITMAP
00
06
0C
18
00
66
66
66
66
66
66
66
7E
3E
00
00
ENDCHAR
STARTCHAR LATIN SMALL LETTER U WITH CIRCUMFLEX
ENCODING 251
SWIDTH 512 0
DWIDTH 8 0
BBX 8 16 0 -2
BITMAP
00
18
3C
66
00
66
66
66
66
66
66
66
7E
3E
00
00
ENDCHAR
STARTCHAR LATIN SMALL LETTER U WITH DIAERESIS
ENCODING 252
SWIDTH 512 0
DWIDTH 8 0
BBX 8 16 0 -2
BITMAP
00
00
66
66
00
66
66
66
66
66
66
66
7E
3E
00
00
ENDCHAR
STARTCHAR LATIN SMALL LETTER Y WITH DIAERESIS
ENCODING 255
SWIDTH 512 0
DWIDTH 8 0
BBX 8 16 0 -2
BITMAP
00
00
66
66
00
66
66
66
66
66
66
7E
3E
06
7E
7C
ENDCHAR
STARTCHAR LATIN CAPITAL LIGATURE IJ
ENCODING 306
SWIDTH 512 0
DWIDTH 8 0
BBX 8 16 0 -2
BITMAP
F6
F6
66
66
66
66
66
66
66
66
66
F6
F6
0E
7C
78
ENDCHAR
STARTCHAR LATIN SMALL LIGATURE IJ
ENCODING 307
SWIDTH 512 0
DWIDTH 8 0
BBX 8 16 0 -2
BITMAP
00
66
66
00
E6
66
66
66
66
66
66
66
F6
0E
3C
38
ENDCHAR
STARTCHAR LATIN CAPITAL LIGATURE OE
ENCODING 338
SWIDTH 512 0
DWIDTH 8 0
BBX 8 16 0 -2
BITMAP
00
00
7E
FE
D8
D8
DE
DE
D8
D8
D8
D8
FE
7E
00
00
ENDCHAR
STARTCHAR LATIN SMALL LIGATURE OE
ENCODING 339
SWIDTH 512 0
DWIDTH 8 0
BBX 8 16 0 -2
BITMAP
00
00
00
00
00
7E
FF
DB
DB
DF
D8
D8
FF
7F
00
00
ENDCHAR
STARTCHAR LATIN SMALL LETTER F WITH HOOK
ENCODING 402
SWIDTH 512 0
DWIDTH 8 0
BBX 8 16 0 -2
BITMAP
00
00
0E
1E
18
18
18
7E
18
18
18
18
18
70
60
00
ENDCHAR
STARTCHAR GREEK CAPITAL LETTER GAMMA
ENCODING 915
SWIDTH 512 0
DWIDTH 8 0
BBX 8 16 0 -2
BITMAP
00
00
FE
7E
62
60
60
60
60
60
60
60
60
F0
00
00
ENDCHAR
STARTCHAR GREEK CAPITAL LETTER DELTA
ENCODING 916
SWIDTH 512 0
DWIDTH 8 0
BBX 8 16 0 -2
BITMAP
00
00
00
00
00
18
18
3C
24
66
42
C3
FF
00
00
00
ENDCHAR
STARTCHAR GREEK CAPITAL LETTER THETA
ENCODING 920
SWIDTH 512 0
DWIDTH 8 0
BBX 8 16 0 -2
BITMAP
00
00
3C
7E
66
42
42
7E
42
42
66
7E
3C
00
00
00
ENDCHAR
STARTCHAR GREEK CAPITAL LETTER SIGMA
ENCODING 931
SWIDTH 512 0
DWIDTH 8 0
BBX 8 16 0 -2
BITMAP
00
00
FE
FE
60
30
18
0C
0C
18
30
60
FE
FE
00
00
ENDCHAR
STARTCHAR GREEK CAPITAL LETTER PHI
ENCODING 934
SWIDTH 512 0
DWIDTH 8 0
BBX 8 16 0 -2
BITMAP
00
7C
10
10
7C
C6
82
82
82
82
C6
7C
10
10
7C
00
ENDCHAR
STARTCHAR GREEK CAPITAL LETTER OMEGA
ENCODING 937
SWIDTH 512 0
DWIDTH 8 0
BBX 8 16 0 -2
BITMAP
00
00
38
6C
C6
C6
C6
C6
6C
28
AA
EE
6C
00
00
00
ENDCHAR
STARTCHAR GREEK SMALL LETTER ALPHA
ENCODING 945
SWIDTH 512 0
DWIDTH 8 0
BBX 8 16 0 -2
BITMAP
00
00
00
00
62
F6
DC
88
88
DC
F6
62
00
00
00
00
ENDCHAR
STARTCHAR GREEK SMALL LETTER BETA
ENCODING 946
SWIDTH 512 0
DWIDTH 8 0
BBX 8 16 0 -2
BITMAP
00
00
18
3C
66
66
66
7C
66
66
66
7C
6C
60
40
00
ENDCHAR
STARTCHAR GREEK SMALL LETTER DELTA
ENCODING 948
SWIDTH 512 0
DWIDTH 8 0
BBX 8 16 0 -2
BITMAP
00
1E
3E
20
30
18
3C
66
42
42
66
7E
3C
00
00
00
ENDCHAR
STARTCHAR GREEK SMALL LETTER EPSILON
ENCODING 949
SWIDTH 512 0
DWIDTH 8 0
BBX 8 16 0 -2
BITMAP
00
00
3E
7E
E0
C0
C0
FC
FC
C0
C0
E0
7E
3E
00
00
ENDCHAR
STARTCHAR GREEK SMALL LETTER PI
ENCODING 960
SWIDTH 512 0
DWIDTH 8 0
BBX 8 16 0 -2
BITMAP
00
00
00
00
02
7E
FC
A8
28
28
28
28
00
00
00
00
ENDCHAR
STARTCHAR GREEK SMALL LETTER SIGMA
ENCODING 963
SWIDTH 512 0
DWIDTH 8 0
BBX 8 16 0 -2
BITMAP
00
00
00
00
1E
38
6C
C6
C6
C6
C6
6C
38
00
00
00
ENDCHAR
STARTCHAR GREEK SMALL LETTER TAU
ENCODING 964
SWIDTH 512 0
DWIDTH 8 0
BBX 8 16 0 -2
BITMAP
00
00
00
02
7E
FC
90
30
30
30
30
20
00
00
00
00
ENDCHAR
STARTCHAR GREEK SMALL LETTER PHI
ENCODING 966
SWIDTH 512 0
DWIDTH 8 0
BBX 8 16 0 -2
BITMAP
00
00
10
10
7C
D6
92
92
92
92
D6
7C
10
10
00
00
ENDCHAR
STARTCHAR char1025
ENCODING 1025
SWIDTH 512 0
DWIDTH 8 0
BBX 8 16 0 -2
BITMAP
66
00
7E
7E
60
60
7C
7C
60
60
60
60
7E
7E
00
00
ENDCHAR
STARTCHAR afii10017
ENCODING 1040
SWIDTH 512 0
DWIDTH 8 0
BBX 8 16 0 -2
BITMAP
00
00
18
3C
7E
66
66
66
7E
7E
66
66
66
66
00
00
ENDCHAR
STARTCHAR char1041
ENCODING 1041
SWIDTH 512 0
DWIDTH 8 0
BBX 8 16 0 -2
BITMAP
00
00
7E
7E
60
60
7C
7E
66
66
66
66
7E
7E
00
00
ENDCHAR
STARTCHAR char1042
ENCODING 1042
SWIDTH 512 0
DWIDTH 8 0
BBX 8 16 0 -2
BITMAP
00
00
7C
7E
66
66
7E
7C
66
66
66
66
7E
7C
00
00
ENDCHAR
STARTCHAR char1043
ENCODING 1043
SWIDTH 512 0
DWIDTH 8 0
BBX 8 16 0 -2
BITMAP
00
00
7C
7E
60
60
60
60
60
60
60
60
60
60
00
00
ENDCHAR
STARTCHAR char1044
ENCODING 1044
SWIDTH 512 0
DWIDTH 8 0
BBX 8 16 0 -2
BITMAP
00
00
1C
3E
36
36
36
36
36
36
3E
7F
63
63
00
00
ENDCHAR
STARTCHAR char1045
ENCODING 1045
SWIDTH 512 0
DWIDTH 8 0
BBX 8 16 0 -2
BITMAP
00
00
7E
7E
60
60
7C
7C
60
60
60
60
7E
7E
00
00
ENDCHAR
STARTCHAR char1046
ENCODING 1046
SWIDTH 512 0
DWIDTH 8 0
BBX 8 16 0 -2
BITMAP
00
00
6B
6B
6B
3E
3E
1C
1C
3E
3E
6B
6B
6B
00
00
ENDCHAR
STARTCHAR char1047
ENCODING 1047
SWIDTH 512 0
DWIDTH 8 0
BBX 8 16 0 -2
BITMAP
00
00
3C
7E
66
06
1C
1C
06
06
06
66
7E
3C
00
00
ENDCHAR
STARTCHAR char1048
ENCODING 1048
SWIDTH 512 0
DWIDTH 8 0
BBX 8 16 0 -2
BITMAP
00
00
66
66
66
6E
6E
7E
7E
76
76
66
66
66
00
00
ENDCHAR
STARTCHAR char1049
ENCODING 1049
SWIDTH 512 0
DWIDTH 8 0
BBX 8 16 0 -2
BITMAP
0C
18
66
66
66
6E
6E
7E
7E
76
76
66
66
66
00
00
ENDCHAR
STARTCHAR char1050
ENCODING 1050
SWIDTH 512 0
DWIDTH 8 0
BBX 8 16 0 -2
BITMAP
00
00
CC
CC
D8
D8
F0
F0
D8
D8
CC
CC
C6
C6
00
00
ENDCHAR
STARTCHAR char1051
ENCODING 1051
SWIDTH 512 0
DWIDTH 8 0
BBX 8 16 0 -2
BITMAP
00
00
0E
1E
1E
3E
36
36
36
36
36
36
66
66
00
00
ENDCHAR
STARTCHAR char1052
ENCODING 1052
SWIDTH 512 0
DWIDTH 8 0
BBX 8 16 0 -2
BITMAP
00
00
C6
C6
EE
EE
FE
D6
D6
C6
C6
C6
C6
C6
00
00
ENDCHAR
STARTCHAR char1053
ENCODING 1053
SWIDTH 512 0
DWIDTH 8 0
BBX 8 16 0 -2
BITMAP
00
00
66
66
66
66
7E
7E
66
66
66
66
66
66
00
00
ENDCHAR
STARTCHAR char1054
ENCODING 1054
SWIDTH 512 0
DWIDTH 8 0
BBX 8 16 0 -2
BITMAP
00
00
3C
7E
66
66
66
66
66
66
66
66
7E
3C
00
00
ENDCHAR
STARTCHAR char1055
ENCODING 1055
SWIDTH 512 0
DWIDTH 8 0
BBX 8 16 0 -2
BITMAP
00
00
7E
7E
66
66
66
66
66
66
66
66
66
66
00
00
ENDCHAR
STARTCHAR char1056
ENCODING 1056
SWIDTH 512 0
DWIDTH 8 0
BBX 8 16 0 -2
BITMAP
00
00
7C
7E
66
66
66
66
7E
7C
60
60
60
60
00
00
ENDCHAR
STARTCHAR char1057
ENCODING 1057
SWIDTH 512 0
DWIDTH 8 0
BBX 8 16 0 -2
BITMAP
00
00
3C
7E
66
66
60
60
60
60
66
66
7E
3C
00
00
ENDCHAR
STARTCHAR char1058
ENCODING 1058
SWIDTH 512 0
DWIDTH 8 0
BBX 8 16 0 -2
BITMAP
00
00
7E
7E
18
18
18
18
18
18
18
18
18
18
00
00
ENDCHAR
STARTCHAR char1059
ENCODING 1059
SWIDTH 512 0
DWIDTH 8 0
BBX 8 16 0 -2
BITMAP
00
00
66
66
66
66
7E
3E
06
06
06
66
7E
3C
00
00
ENDCHAR
STARTCHAR char1060
ENCODING 1060
SWIDTH 512 0
DWIDTH 8 0
BBX 8 16 0 -2
BITMAP
00
00
7E
FF
DB
DB
DB
DB
FF
7E
18
18
18
18
00
00
ENDCHAR
STARTCHAR char1061
ENCODING 1061
SWIDTH 512 0
DWIDTH 8 0
BBX 8 16 0 -2
BITMAP
00
00
66
66
66
3C
3C
18
18
3C
3C
66
66
66
00
00
ENDCHAR
STARTCHAR char1062
ENCODING 1062
SWIDTH 512 0
DWIDTH 8 0
BBX 8 16 0 -2
BITMAP
00
00
66
66
66
66
66
66
66
66
66
66
7E
7F
03
03
ENDCHAR
STARTCHAR char1063
ENCODING 1063
SWIDTH 512 0
DWIDTH 8 0
BBX 8 16 0 -2
BITMAP
00
00
66
66
66
66
7E
3E
06
06
06
06
06
06
00
00
ENDCHAR
STARTCHAR char1064
ENCODING 1064
SWIDTH 512 0
DWIDTH 8 0
BBX 8 16 0 -2
BITMAP
00
00
C6
C6
C6
D6
D6
D6
D6
D6
D6
D6
FE
FE
00
00
ENDCHAR
STARTCHAR char1065
ENCODING 1065
SWIDTH 512 0
DWIDTH 8 0
BBX 8 16 0 -2
BITMAP
00
00
C6
C6
C6
D6
D6
D6
D6
D6
D6
D6
FE
FE
03
03
ENDCHAR
STARTCHAR char1066
ENCODING 1066
SWIDTH 512 0
DWIDTH 8 0
BBX 8 16 0 -2
BITMAP
00
00
E0
E0
60
7C
7E
66
66
66
66
66
7E
7C
00
00
ENDCHAR
STARTCHAR char1067
ENCODING 1067
SWIDTH 512 0
DWIDTH 8 0
BBX 8 16 0 -2
BITMAP
00
00
C3
C3
C3
C3
FB
FB
DB
DB
DB
DB
FB
FB
00
00
ENDCHAR
STARTCHAR char1068
ENCODING 1068
SWIDTH 512 0
DWIDTH 8 0
BBX 8 16 0 -2
BITMAP
00
00
60
60
60
60
7C
7E
66
66
66
66
7E
7C
00
00
ENDCHAR
STARTCHAR char1069
ENCODING 1069
SWIDTH 512 0
DWIDTH 8 0
BBX 8 16 0 -2
BITMAP
00
00
78
7C
06
06
06
1E
1E
06
06
06
7C
78
00
00
ENDCHAR
STARTCHAR char1070
ENCODING 1070
SWIDTH 512 0
DWIDTH 8 0
BBX 8 16 0 -2
BITMAP
00
00
DE
DB
DB
DB
DB
FB
FB
DB
DB
DB
DB
DE
00
00
ENDCHAR
STARTCHAR char1071
ENCODING 1071
SWIDTH 512 0
DWIDTH 8 0
BBX 8 16 0 -2
BITMAP
00
00
3E
7E
66
66
66
7E
3E
36
66
66
C6
C6
00
00
ENDCHAR
STARTCHAR char1072
ENCODING 1072
SWIDTH 512 0
DWIDTH 8 0
BBX 8 16 0 -2
BITMAP
00
00
00
00
00
3C
3E
06
3E
7E
66
66
7E
3E
00
00
ENDCHAR
STARTCHAR char1073
ENCODING 1073
SWIDTH 512 0
DWIDTH 8 0
BBX 8 16 0 -2
BITMAP
00
00
00
3E
7E
60
38
7C
66
66
66
66
7E
7C
00
00
ENDCHAR
STARTCHAR char1074
ENCODING 1074
SWIDTH 512 0
DWIDTH 8 0
BBX 8 16 0 -2
BITMAP
00
00
00
00
3C
7E
66
64
7C
7E
66
66
7E
7C
00
00
ENDCHAR
STARTCHAR char1075
ENCODING 1075
SWIDTH 512 0
DWIDTH 8 0
BBX 8 16 0 -2
BITMAP
00
00
00
00
3C
7C
60
60
60
60
60
60
60
60
00
00
ENDCHAR
STARTCHAR char1076
ENCODING 1076
SWIDTH 512 0
DWIDTH 8 0
BBX 8 16 0 -2
BITMAP
00
00
00
00
00
3C
7E
66
66
66
66
7E
FF
C3
C3
00
ENDCHAR
STARTCHAR char1077
ENCODING 1077
SWIDTH 512 0
DWIDTH 8 0
BBX 8 16 0 -2
BITMAP
00
00
00
00
00
3C
7E
66
66
7E
60
60
7E
3E
00
00
ENDCHAR
STARTCHAR char1078
ENCODING 1078
SWIDTH 512 0
DWIDTH 8 0
BBX 8 16 0 -2
BITMAP
00
00
00
00
00
D6
D6
D6
7C
38
7C
D6
D6
D6
00
00
ENDCHAR
STARTCHAR char1079
ENCODING 1079
SWIDTH 512 0
DWIDTH 8 0
BBX 8 16 0 -2
BITMAP
00
00
00
00
00
7C
7E
06
1C
1C
06
06
7E
7C
00
00
ENDCHAR
STARTCHAR char1080
ENCODING 1080
SWIDTH 512 0
DWIDTH 8 0
BBX 8 16 0 -2
BITMAP
00
00
00
00
00
66
66
66
6E
7E
7E
76
66
66
00
00
ENDCHAR
STARTCHAR char1081
ENCODING 1081
SWIDTH 512 0
DWIDTH 8 0
BBX 8 16 0 -2
BITMAP
00
00
0C
18
00
66
66
66
6E
7E
7E
76
66
66
00
00
ENDCHAR
STARTCHAR char1082
ENCODING 1082
SWIDTH 512 0
DWIDTH 8 0
BBX 8 16 0 -2
BITMAP
00
00
00
00
00
66
6E
6C
78
78
7C
6C
6E
66
00
00
ENDCHAR
STARTCHAR char1083
ENCODING 1083
SWIDTH 512 0
DWIDTH 8 0
BBX 8 16 0 -2
BITMAP
00
00
00
00
00
1E
3E
76
66
66
66
66
66
66
00
00
ENDCHAR
STARTCHAR char1084
ENCODING 1084
SWIDTH 512 0
DWIDTH 8 0
BBX 8 16 0 -2
BITMAP
00
00
00
00
00
E7
FF
FF
DB
DB
DB
C3
C3
C3
00
00
ENDCHAR
STARTCHAR char1085
ENCODING 1085
SWIDTH 512 0
DWIDTH 8 0
BBX 8 16 0 -2
BITMAP
00
00
00
00
00
66
66
66
7E
7E
66
66
66
66
00
00
ENDCHAR
STARTCHAR char1086
ENCODING 1086
SWIDTH 512 0
DWIDTH 8 0
BBX 8 16 0 -2
BITMAP
00
00
00
00
00
3C
7E
66
66
66
66
66
7E
3C
00
00
ENDCHAR
STARTCHAR char1087
ENCODING 1087
SWIDTH 512 0
DWIDTH 8 0
BBX 8 16 0 -2
BITMAP
00
00
00
00
00
7E
7E
66
66
66
66
66
66
66
00
00
ENDCHAR
STARTCHAR char1088
ENCODING 1088
SWIDTH 512 0
DWIDTH 8 0
BBX 8 16 0 -2
BITMAP
00
00
00
00
00
7C
7E
66
66
66
66
66
7E
7C
60
60
ENDCHAR
STARTCHAR char1089
ENCODING 1089
SWIDTH 512 0
DWIDTH 8 0
BBX 8 16 0 -2
BITMAP
00
00
00
00
00
3C
7C
60
60
60
60
60
7E
3E
00
00
ENDCHAR
STARTCHAR char1090
ENCODING 1090
SWIDTH 512 0
DWIDTH 8 0
BBX 8 16 0 -2
BITMAP
00
00
00
00
00
7E
7E
18
18
18
18
18
18
18
00
00
ENDCHAR
STARTCHAR char1091
ENCODING 1091
SWIDTH 512 0
DWIDTH 8 0
BBX 8 16 0 -2
BITMAP
00
00
00
00
00
66
66
66
66
3E
3E
06
06
06
3E
3C
ENDCHAR
STARTCHAR char1092
ENCODING 1092
SWIDTH 512 0
DWIDTH 8 0
BBX 8 16 0 -2
BITMAP
00
00
00
00
00
7E
DB
DB
DB
DB
DB
DB
DB
7E
18
18
ENDCHAR
STARTCHAR char1093
ENCODING 1093
SWIDTH 512 0
DWIDTH 8 0
BBX 8 16 0 -2
BITMAP
00
00
00
00
00
66
66
3C
3C
18
3C
3C
66
66
00
00
ENDCHAR
STARTCHAR char1094
ENCODING 1094
SWIDTH 512 0
DWIDTH 8 0
BBX 8 16 0 -2
BITMAP
00
00
00
00
00
66
66
66
66
66
66
66
7E
3E
03
03
ENDCHAR
STARTCHAR char1095
ENCODING 1095
SWIDTH 512 0
DWIDTH 8 0
BBX 8 16 0 -2
BITMAP
00
00
00
00
00
66
66
66
66
3E
06
06
06
06
00
00
ENDCHAR
STARTCHAR char1096
ENCODING 1096
SWIDTH 512 0
DWIDTH 8 0
BBX 8 16 0 -2
BITMAP
00
00
00
00
00
C6
C6
D6
D6
D6
D6
D6
FE
FE
00
00
ENDCHAR
STARTCHAR char1097
ENCODING 1097
SWIDTH 512 0
DWIDTH 8 0
BBX 8 16 0 -2
BITMAP
00
00
00
00
00
C6
C6
D6
D6
D6
D6
D6
FE
FE
03
03
ENDCHAR
STARTCHAR char1098
ENCODING 1098
SWIDTH 512 0
DWIDTH 8 0
BBX 8 16 0 -2
BITMAP
00
00
00
00
00
E0
E0
7C
7E
66
66
66
7E
3C
00
00
ENDCHAR
STARTCHAR char1099
ENCODING 1099
SWIDTH 512 0
DWIDTH 8 0
BBX 8 16 0 -2
BITMAP
00
00
00
00
00
C3
C3
F3
FB
DB
DB
DB
FB
FB
00
00
ENDCHAR
STARTCHAR char1100
ENCODING 1100
SWIDTH 512 0
DWIDTH 8 0
BBX 8 16 0 -2
BITMAP
00
00
00
00
00
60
60
7C
7E
66
66
66
7E
3C
00
00
ENDCHAR
STARTCHAR char1101
ENCODING 1101
SWIDTH 512 0
DWIDTH 8 0
BBX 8 16 0 -2
BITMAP
00
00
00
00
00
7C
7E
06
1E
1E
06
06
7E
7C
00
00
ENDCHAR
STARTCHAR char1102
ENCODING 1102
SWIDTH 512 0
DWIDTH 8 0
BBX 8 16 0 -2
BITMAP
00
00
00
00
00
CE
DB
DB
DB
FB
FB
DB
DB
CE
00
00
ENDCHAR
STARTCHAR char1103
ENCODING 1103
SWIDTH 512 0
DWIDTH 8 0
BBX 8 16 0 -2
BITMAP
00
00
00
00
00
3E
7E
66
66
7E
3E
66
66
66
00
00
ENDCHAR
STARTCHAR char1105
ENCODING 1105
SWIDTH 512 0
DWIDTH 8 0
BBX 8 16 0 -2
BITMAP
00
00
24
66
00
3C
7E
66
66
7E
60
60
7E
3E
00
00
ENDCHAR
STARTCHAR HEBREW LETTER ALEF
ENCODING 1488
SWIDTH 512 0
DWIDTH 8 0
BBX 8 16 0 -2
BITMAP
00
00
66
76
76
3E
3C
3C
6E
6E
66
62
00
00
00
00
ENDCHAR
STARTCHAR HEBREW LETTER BET
ENCODING 1489
SWIDTH 512 0
DWIDTH 8 0
BBX 8 16 0 -2
BITMAP
00
00
7C
7C
0C
0C
0C
0C
0C
0C
7E
7E
00
00
00
00
ENDCHAR
STARTCHAR HEBREW LETTER GIMEL
ENCODING 1490
SWIDTH 512 0
DWIDTH 8 0
BBX 8 16 0 -2
BITMAP
00
00
1E
1E
06
06
0E
1E
36
36
36
36
00
00
00
00
ENDCHAR
STARTCHAR HEBREW LETTER DALET
ENCODING 1491
SWIDTH 512 0
DWIDTH 8 0
BBX 8 16 0 -2
BITMAP
00
00
7E
7E
0C
0C
0C
0C
0C
0C
0C
0C
00
00
00
00
ENDCHAR
STARTCHAR HEBREW LETTER HE
ENCODING 1492
SWIDTH 512 0
DWIDTH 8 0
BBX 8 16 0 -2
BITMAP
00
00
7E
7E
06
66
66
66
66
66
66
66
00
00
00
00
ENDCHAR
STARTCHAR HEBREW LETTER VAV
ENCODING 1493
SWIDTH 512 0
DWIDTH 8 0
BBX 8 16 0 -2
BITMAP
00
00
38
38
18
18
18
18
18
18
18
18
00
00
00
00
ENDCHAR
STARTCHAR HEBREW LETTER ZAYIN
ENCODING 1494
SWIDTH 512 0
DWIDTH 8 0
BBX 8 16 0 -2
BITMAP
00
00
1E
1E
04
0C
0C
0C
0C
0C
0C
04
00
00
00
00
ENDCHAR
STARTCHAR HEBREW LETTER HET
ENCODING 1495
SWIDTH 512 0
DWIDTH 8 0
BBX 8 16 0 -2
BITMAP
00
00
7E
7E
66
66
66
66
66
66
66
66
00
00
00
00
ENDCHAR
STARTCHAR HEBREW LETTER TET
ENCODING 1496
SWIDTH 512 0
DWIDTH 8 0
BBX 8 16 0 -2
BITMAP
00
00
6E
6E
66
66
66
66
66
66
7E
7E
00
00
00
00
ENDCHAR
STARTCHAR HEBREW LETTER YOD
ENCODING 1497
SWIDTH 512 0
DWIDTH 8 0
BBX 8 16 0 -2
BITMAP
00
00
3C
3C
0C
0C
00
00
00
00
00
00
00
00
00
00
ENDCHAR
STARTCHAR HEBREW LETTER FINAL KAF
ENCODING 1498
SWIDTH 512 0
DWIDTH 8 0
BBX 8 16 0 -2
BITMAP
00
00
7E
7E
06
06
06
06
06
06
06
06
06
06
00
00
ENDCHAR
STARTCHAR HEBREW LETTER KAF
ENCODING 1499
SWIDTH 512 0
DWIDTH 8 0
BBX 8 16 0 -2
BITMAP
00
00
3C
3E
06
06
06
06
06
06
3E
3C
00
00
00
00
ENDCHAR
STARTCHAR HEBREW LETTER LAMED
ENCODING 1500
SWIDTH 512 0
DWIDTH 8 0
BBX 8 16 0 -2
BITMAP
60
60
7E
7E
06
06
06
0E
1C
30
30
30
00
00
00
00
ENDCHAR
STARTCHAR HEBREW LETTER FINAL MEM
ENCODING 1501
SWIDTH 512 0
DWIDTH 8 0
BBX 8 16 0 -2
BITMAP
00
00
7E
3E
36
36
36
36
36
36
3E
3E
00
00
00
00
ENDCHAR
STARTCHAR HEBREW LETTER MEM
ENCODING 1502
SWIDTH 512 0
DWIDTH 8 0
BBX 8 16 0 -2
BITMAP
00
00
6C
6E
3E
36
66
66
66
6E
6E
6E
00
00
00
00
ENDCHAR
STARTCHAR HEBREW LETTER FINAL NUN
ENCODING 1503
SWIDTH 512 0
DWIDTH 8 0
BBX 8 16 0 -2
BITMAP
00
00
38
38
18
18
18
18
18
18
18
18
18
18
00
00
ENDCHAR
STARTCHAR HEBREW LETTER NUN
ENCODING 1504
SWIDTH 512 0
DWIDTH 8 0
BBX 8 16 0 -2
BITMAP
00
00
1C
1C
0C
0C
0C
0C
0C
0C
7C
7C
00
00
00
00
ENDCHAR
STARTCHAR HEBREW LETTER SAMEKH
ENCODING 1505
SWIDTH 512 0
DWIDTH 8 0
BBX 8 16 0 -2
BITMAP
00
00
FE
FE
FE
C6
C6
C6
C6
C6
FE
7C
00
00
00
00
ENDCHAR
STARTCHAR HEBREW LETTER AYIN
ENCODING 1506
SWIDTH 512 0
DWIDTH 8 0
BBX 8 16 0 -2
BITMAP
00
00
36
36
36
36
36
36
36
36
7E
7E
00
00
00
00
ENDCHAR
STARTCHAR HEBREW LETTER FINAL PE
ENCODING 1507
SWIDTH 512 0
DWIDTH 8 0
BBX 8 16 0 -2
BITMAP
00
00
7E
7E
66
66
76
76
06
06
06
06
06
06
00
00
ENDCHAR
STARTCHAR HEBREW LETTER PE
ENCODING 1508
SWIDTH 512 0
DWIDTH 8 0
BBX 8 16 0 -2
BITMAP
00
00
7E
7E
66
66
76
76
06
7E
7E
7E
00
00
00
00
ENDCHAR
STARTCHAR HEBREW LETTER FINAL TSADI
ENCODING 1509
SWIDTH 512 0
DWIDTH 8 0
BBX 8 16 0 -2
BITMAP
00
00
6E
6E
66
76
3E
0E
06
06
06
06
06
06
00
00
ENDCHAR
STARTCHAR HEBREW LETTER TSADI
ENCODING 1510
SWIDTH 512 0
DWIDTH 8 0
BBX 8 16 0 -2
BITMAP
00
00
6E
6E
66
36
3E
18
1C
0E
7E
7E
00
00
00
00
ENDCHAR
STARTCHAR HEBREW LETTER QOF
ENCODING 1511
SWIDTH 512 0
DWIDTH 8 0
BBX 8 16 0 -2
BITMAP
00
00
3E
3E
3E
06
06
36
36
36
36
36
30
30
30
00
ENDCHAR
STARTCHAR HEBREW LETTER RESH
ENCODING 1512
SWIDTH 512 0
DWIDTH 8 0
BBX 8 16 0 -2
BITMAP
00
00
7C
7E
06
06
06
06
06
06
06
06
00
00
00
00
ENDCHAR
STARTCHAR HEBREW LETTER SHIN
ENCODING 1513
SWIDTH 512 0
DWIDTH 8 0
BBX 8 16 0 -2
BITMAP
00
00
D6
D6
D6
D6
F6
F6
C6
C6
FE
FE
00
00
00
00
ENDCHAR
STARTCHAR HEBREW LETTER TAV
ENCODING 1514
SWIDTH 512 0
DWIDTH 8 0
BBX 8 16 0 -2
BITMAP
00
00
7E
7E
66
66
66
66
66
66
E6
E6
00
00
00
00
ENDCHAR
STARTCHAR DAGGER
ENCODING 8224
SWIDTH 512 0
DWIDTH 8 0
BBX 8 16 0 -2
BITMAP
00
10
7C
10
10
10
10
10
00
00
00
00
00
00
00
00
ENDCHAR
STARTCHAR SUPERSCRIPT LATIN SMALL LETTER N
ENCODING 8319
SWIDTH 512 0
DWIDTH 8 0
BBX 8 16 0 -2
BITMAP
00
00
30
78
48
48
48
48
00
00
00
00
00
00
00
00
ENDCHAR
STARTCHAR TRADE MARK SIGN
ENCODING 8482
SWIDTH 512 0
DWIDTH 8 0
BBX 8 16 0 -2
BITMAP
F1
5B
5F
55
51
00
00
00
00
00
00
00
00
00
00
00
ENDCHAR
STARTCHAR BULLET OPERATOR
ENCODING 8729
SWIDTH 512 0
DWIDTH 8 0
BBX 8 16 0 -2
BITMAP
00
38
7C
7C
7C
38
00
00
00
00
00
00
00
00
00
00
ENDCHAR
STARTCHAR SQUARE ROOT
ENCODING 8730
SWIDTH 512 0
DWIDTH 8 0
BBX 8 16 0 -2
BITMAP
00
00
00
00
00
1F
10
D0
D0
50
70
20
00
00
00
00
ENDCHAR
STARTCHAR INFINITY
ENCODING 8734
SWIDTH 512 0
DWIDTH 8 0
BBX 8 16 0 -2
BITMAP
00
00
00
00
66
F7
99
99
EF
66
00
00
00
00
00
00
ENDCHAR
STARTCHAR LOGICAL AND
ENCODING 8743
SWIDTH 512 0
DWIDTH 8 0
BBX 8 16 0 -2
BITMAP
00
00
00
00
00
10
10
38
38
6C
6C
C6
C6
00
00
00
ENDCHAR
STARTCHAR INTERSECTION
ENCODING 8745
SWIDTH 512 0
DWIDTH 8 0
BBX 8 16 0 -2
BITMAP
00
00
7C
FE
C6
C6
C6
C6
C6
C6
C6
C6
C6
C6
00
00
ENDCHAR
STARTCHAR CONTOUR INTEGRAL
ENCODING 8750
SWIDTH 512 0
DWIDTH 8 0
BBX 8 16 0 -2
BITMAP
00
0E
1E
10
7C
D6
92
92
92
92
D6
7C
10
F0
E0
00
ENDCHAR
STARTCHAR ALMOST EQUAL TO
ENCODING 8776
SWIDTH 512 0
DWIDTH 8 0
BBX 8 16 0 -2
BITMAP
00
00
00
02
3E
7C
40
02
3E
7C
40
00
00
00
00
00
ENDCHAR
STARTCHAR IDENTICAL TO
ENCODING 8801
SWIDTH 512 0
DWIDTH 8 0
BBX 8 16 0 -2
BITMAP
00
00
00
00
7E
7E
00
7E
7E
00
7E
7E
00
00
00
00
ENDCHAR
STARTCHAR LESS-THAN OR EQUAL TO
ENCODING 8804
SWIDTH 512 0
DWIDTH 8 0
BBX 8 16 0 -2
BITMAP
00
00
06
0E
1C
38
70
38
1C
0E
06
00
7E
7E
00
00
ENDCHAR
STARTCHAR GREATER-THAN OR EQUAL TO
ENCODING 8805
SWIDTH 512 0
DWIDTH 8 0
BBX 8 16 0 -2
BITMAP
00
00
60
70
38
1C
0E
1C
38
70
60
00
7E
7E
00
00
ENDCHAR
STARTCHAR REVERSED NOT SIGN
ENCODING 8976
SWIDTH 512 0
DWIDTH 8 0
BBX 8 16 0 -2
BITMAP
00
00
00
00
00
00
00
00
00
7E
7E
60
60
60
00
00
ENDCHAR
STARTCHAR TOP HALF INTEGRAL
ENCODING 8992
SWIDTH 512 0
DWIDTH 8 0
BBX 8 16 0 -2
BITMAP
00
00
0E
19
1B
1B
18
18
18
18
18
18
18
18
18
18
ENDCHAR
STARTCHAR BOTTOM HALF INTEGRAL
ENCODING 8993
SWIDTH 512 0
DWIDTH 8 0
BBX 8 16 0 -2
BITMAP
18
18
18
18
18
18
18
18
18
18
D8
D8
98
70
00
00
ENDCHAR
ENDFONT
